# xmcd
#
# Track frame offsets:
#	150
#	13149
#	28015
#	41725
#	56687
#	72449
#	85423
#	98450
#	111825
#	124942
#	139158
#	152026
#	165576
#	177784
#	193148
#	207031
#	220661
#	235282
#	247627
#	260291
#	272344
#	285803
#	299063
#	313553
#	328617
#
# Disc length: 4578
#
# Revision: 1
# Processed by: cddbd v1.5.1PL0 Copyright (c) Steve Scherf et al.
# Submitted via: WhereIsIt 3.51
# Normalized: r0:DSETVAR1
#
DISCID=6311e019
DTITLE=Various Artist - When The Sun Goes Down [CD 3) - That's Chicago's South Side
DYEAR=1900
DGENRE=Blues
TTITLE0=Sam Theard - That's Chicago's South Side
TTITLE1=Peetie Wheatstraw - Peetie Wheatstraw Blues
TTITLE2=Roosevelt Sykes - Devil's Island Gin Blues
TTITLE3=Amos Easton - Sail On, Little Girl, Sail On
TTITLE4=Joe Pullum - Black Gal, What Makes Your Head So Hard?
TTITLE5=Lil Johnson - I Lost My Baby
TTITLE6=Big Bill Broonzy - Keep Your Hands Off Her
TTITLE7=Leroy Carr - When the  Sun Goes Down
TTITLE8=Memphis Minnie McCoy - Selling My Pork Chops
TTITLE9=Pine Top Sparks - Every Day I Have the Blues
TTITLE10=Walter Davis - Sweet Sixteen
TTITLE11=Meade Lux Lewis - Honky Tonk Train Blues
TTITLE12=Richard M. Jones - Trouble in Mind
TTITLE13=Merline Johnson - He Roars Like a Lion
TTITLE14=Robert Lee McCoy - Prowling Night Hawk
TTITLE15=Sonny Boy Williamson - Good Morning School Girl
TTITLE16=Speckled Red Trio - You Got to Fix It
TTITLE17=Washboard Sam - Bucket's Got a Hole in It
TTITLE18=Tommy McClennan - Bottle It Up and Go
TTITLE19=Bill 'Jazz' Gillum - Key to the Highway
TTITLE20=Tampa Red - Don't You Lie to Me
TTITLE21=Johnny Temple - What Is That She Got
TTITLE22=St. Louis Jimmy Oden - Going Down Slow
TTITLE23=James 'Yank' Rachel - Hobo Blues
TTITLE24=Lonnie Johnson - He's a Jelly Roll Baker
EXTD=
EXTT0=
EXTT1=
EXTT2=
EXTT3=
EXTT4=
EXTT5=
EXTT6=
EXTT7=
EXTT8=
EXTT9=
EXTT10=
EXTT11=
EXTT12=
EXTT13=
EXTT14=
EXTT15=
EXTT16=
EXTT17=
EXTT18=
EXTT19=
EXTT20=
EXTT21=
EXTT22=
EXTT23=
EXTT24=
PLAYORDER=
